HIERARCHY
ROOT Hips
{
	OFFSET	0.00	0.00	0.00
	CHANNELS 6 Xposition Yposition Zposition Zrotation Xrotation Yrotation
	JOINT LeftUpLeg
	{
		OFFSET	 0.126116	-0.014019	-0.065224
		CHANNELS 3 Zrotation Xrotation Yrotation
		JOINT LeftLeg
		{
			OFFSET	 0.000000	 0.000000	 0.569914
			CHANNELS 3 Zrotation Xrotation Yrotation
			JOINT LeftFoot
			{
				OFFSET	 0.000000	 0.000000	 0.544423
				CHANNELS 3 Zrotation Xrotation Yrotation
				JOINT LeftToeBase
				{
					OFFSET	 0.000000	 0.000000	 0.207117
					CHANNELS 3 Zrotation Xrotation Yrotation
					End Site
					{
						OFFSET	 0.000000	 0.000000	 0.207117
					}
				}
			}
		}
	}
	JOINT RightUpLeg
	{
		OFFSET	-0.124023	-0.008373	-0.065224
		CHANNELS 3 Zrotation Xrotation Yrotation
		JOINT RightLeg
		{
			OFFSET	 0.000000	 0.000000	 0.570047
			CHANNELS 3 Zrotation Xrotation Yrotation
			JOINT RightFoot
			{
				OFFSET	 0.000000	 0.000000	 0.544354
				CHANNELS 3 Zrotation Xrotation Yrotation
				JOINT RightToeBase
				{
					OFFSET	 0.000000	 0.000000	 0.207540
					CHANNELS 3 Zrotation Xrotation Yrotation
					End Site
					{
						OFFSET	 0.000000	 0.000000	 0.207540
					}
				}
			}
		}
	}
	JOINT Spine
	{
		OFFSET	 0.000184	-0.007763	 0.117403
		CHANNELS 3 Zrotation Xrotation Yrotation
		JOINT Spine1
		{
			OFFSET	 0.000000	 0.000000	 0.137269
			CHANNELS 3 Zrotation Xrotation Yrotation
			JOINT Spine2
			{
				OFFSET	 0.000000	 0.000000	 0.156879
				CHANNELS 3 Zrotation Xrotation Yrotation
				JOINT LeftShoulder
				{
					OFFSET	 0.080501	-0.002496	 0.160144
					CHANNELS 3 Zrotation Xrotation Yrotation
					JOINT LeftArm
					{
						OFFSET	 0.000000	 0.000000	 0.164363
						CHANNELS 3 Zrotation Xrotation Yrotation
						JOINT LeftForeArm
						{
							OFFSET	 0.000000	 0.000000	 0.364576
							CHANNELS 3 Zrotation Xrotation Yrotation
							JOINT LeftHand
							{
								OFFSET	 0.000000	 0.000000	 0.360812
								CHANNELS 3 Zrotation Xrotation Yrotation
								JOINT LeftHandIndex1
								{
									OFFSET	 0.000000	 0.000000	 0.086006
									CHANNELS 3 Zrotation Xrotation Yrotation
									JOINT LeftHandIndex2
									{
										OFFSET	 0.000000	 0.000000	 0.047236
										CHANNELS 3 Zrotation Xrotation Yrotation
										JOINT LeftHandIndex3
										{
											OFFSET	-0.004284	-0.000551	 0.038166
											CHANNELS 3 Zrotation Xrotation Yrotation
											End Site
											{
												OFFSET	-0.004284	-0.000551	 0.038166
											}
										}
									}
								}
							}
						}
					}
				}
				JOINT Neck
				{
					OFFSET	 0.000000	 0.000000	 0.176489
					CHANNELS 3 Zrotation Xrotation Yrotation
					JOINT Head
					{
						OFFSET	 0.000000	-0.001747	 0.077940
						CHANNELS 3 Zrotation Xrotation Yrotation
						End Site
						{
							OFFSET	 0.000000	-0.001747	 0.077940
						}
					}
				}
				JOINT RightShoulder
				{
					OFFSET	-0.080363	 0.000306	 0.159706
					CHANNELS 3 Zrotation Xrotation Yrotation
					JOINT RightArm
					{
						OFFSET	 0.000000	 0.000000	 0.164196
						CHANNELS 3 Zrotation Xrotation Yrotation
						JOINT RightForeArm
						{
							OFFSET	 0.000000	 0.000000	 0.365611
							CHANNELS 3 Zrotation Xrotation Yrotation
							JOINT RightHand
							{
								OFFSET	 0.000000	 0.000000	 0.360648
								CHANNELS 3 Zrotation Xrotation Yrotation
								JOINT RightHandIndex1
								{
									OFFSET	 0.000000	 0.000000	 0.069977
									CHANNELS 3 Zrotation Xrotation Yrotation
									JOINT RightHandIndex2
									{
										OFFSET	 0.000000	 0.000000	 0.052305
										CHANNELS 3 Zrotation Xrotation Yrotation
										JOINT RightHandIndex3
										{
											OFFSET	 0.009002	-0.000782	 0.042196
											CHANNELS 3 Zrotation Xrotation Yrotation
											End Site
											{
												OFFSET	 0.009002	-0.000782	 0.042196
											}
										}
									}
								}
							}
						}
					}
				}
			}
		}
	}
}
MOTION
Frames:    4
Frame Time: 0.03333334
 6.936670	 3.958562	 0.157070	-175.723200	-1.976925	-0.179828	 6.230886	-0.647110	-178.048500	-2.760419	-34.268480	 1.057825	 96.813980	 89.972030	-96.052490	-2.376564	 30.352990	-0.041615	 1.794844	-31.001280	 179.583600	 17.649040	-69.959010	 20.992880	-178.831800	 88.819820	-173.701000	 2.377960	 29.795190	 0.030726	-1.338108	 4.330782	 1.595719	-1.391959	-1.982414	 1.005760	-0.275024	-4.724153	-0.029449	-91.787250	 78.304950	 178.853600	 35.453230	 63.000620	-48.008830	-8.843463	-4.333678	-30.186210	 3.493664	-4.550610	-5.379801	-3.812334	 37.924440	-2.927599	-2.450526	 36.184240	 0.754587	-1.378229	 35.397820	-2.634230	-0.333515	 4.088417	-2.088768	 0.430243	-11.980580	-1.342537	 89.789140	 78.523580	 179.493600	-41.737040	 71.412690	 43.411080	 1.770473	-7.625959	 26.240950	-12.542820	-5.622567	 9.620828	 6.437017	 35.671460	-0.771858	 2.830251	 35.756010	-7.813440	-2.350882	 35.473990	 5.254307
 6.930445	 4.004855	 0.154818	-175.526900	-1.625717	-0.664985	 5.974054	 3.333882	-177.240600	-3.200211	-30.281700	 0.933949	 13.989390	 89.712650	-13.395660	-2.374538	 30.723190	-0.049866	 2.048765	-33.275410	 179.766800	 12.523760	-63.120130	 15.359130	-172.422600	 89.049000	-179.818000	 2.378343	 29.721650	 0.029095	-1.397766	 4.227416	 2.167264	-1.518677	-2.057797	 0.961263	-0.310973	-4.804467	-0.033515	-91.768420	 78.670080	 178.772900	 34.943790	 61.926400	-48.995330	-8.655754	-4.503232	-31.633380	 3.419569	-5.811143	-5.392488	-3.812334	 37.924440	-2.927599	-2.450526	 36.184240	 0.754587	-1.378229	 35.397820	-2.634230	-0.367265	 4.219732	-2.491549	 0.514908	-12.270110	-1.209003	 89.781050	 78.156490	 179.455200	-41.631850	 71.546260	 42.740520	 1.946746	-7.702066	 26.992000	-12.102650	-6.874989	 9.647920	 6.437017	 35.671460	-0.771858	 2.830251	 35.756010	-7.813440	-2.350882	 35.473990	 5.254307
 6.925208	 4.051309	 0.153123	-175.385100	-1.201187	-0.878367	 6.327244	 7.918203	-177.005200	-3.499623	-24.766140	 1.133246	 7.439737	 88.777950	-6.382969	-2.367294	 31.959720	-0.077755	 2.307675	-34.773020	 179.715100	 9.468946	-55.619810	 11.679400	-154.991200	 89.425630	 163.120600	 2.385727	 28.143080	-0.005307	-1.381154	 4.023522	 2.432403	-1.546434	-2.146825	 0.946587	-0.316277	-4.846824	-0.034203	-91.759430	 78.829440	 178.755400	 34.598820	 61.033530	-49.868790	-8.636172	-4.502640	-32.600520	 3.103094	-7.292433	-5.405587	-3.812334	 37.924440	-2.927599	-2.450526	 36.184240	 0.754587	-1.378229	 35.397820	-2.634230	-0.334142	 4.344637	-2.793783	 0.558654	-12.473040	-1.174013	 89.777470	 78.003600	 179.449400	-41.536010	 71.734600	 42.329770	 2.060318	-7.706400	 27.141240	-11.788300	-8.323812	 9.681350	 6.437017	 35.671460	-0.771858	 2.830251	 35.756010	-7.813440	-2.350882	 35.473990	 5.254307
 6.918978	 4.105861	 0.150909	-175.203400	-0.737482	-1.100516	 8.071441	 16.251630	-176.731500	-4.081209	-12.364690	 1.524810	 3.331320	 84.363200	 0.126340	-2.352504	 34.140130	-0.128367	 2.799834	-35.542630	 179.720700	 6.717745	-47.461790	 8.489945	-145.499600	 89.590260	 153.608200	 2.387456	 27.733590	-0.014109	-1.307849	 3.706200	 2.660543	-1.493033	-2.263579	 0.982138	-0.248393	-4.860878	-0.026892	-91.753750	 78.927050	 178.743100	 34.318950	 60.446810	-50.622460	-8.663097	-4.506460	-33.059810	 2.854768	-9.115333	-5.431406	-3.812334	 37.924440	-2.927599	-2.450526	 36.184240	 0.754587	-1.378229	 35.397820	-2.634230	-0.220591	 4.406355	-3.068193	 0.653010	-12.546510	-1.108567	 89.775310	 77.907240	 179.456100	-41.385600	 72.020210	 42.086690	 2.067376	-7.632252	 26.519040	-11.634650	-10.138590	 9.728477	 6.437017	 35.671460	-0.771858	 2.830251	 35.756010	-7.813440	-2.350882	 35.473990	 5.254307
